<?xml version="1.0" standalone="no"?>
<!DOCTYPE svg PUBLIC "-//W3C//DTD SVG 20010904//EN"
 "http://www.w3.org/TR/2001/REC-SVG-20010904/DTD/svg10.dtd">
<svg version="1.0" xmlns="http://www.w3.org/2000/svg"
 width="64.000000pt" height="64.000000pt" viewBox="0 0 64.000000 64.000000"
 preserveAspectRatio="xMidYMid meet">

<g transform="translate(0.000000,64.000000) scale(0.100000,-0.100000)"
fill="#000000" stroke="none">
<path d="M290 468 l0 -82 -58 57 c-56 55 -59 57 -75 39 -16 -17 -14 -21 33
-67 28 -27 50 -53 50 -57 0 -4 -34 -8 -75 -8 l-75 0 0 -30 0 -30 77 0 77 0
-54 -55 c-53 -54 -53 -55 -35 -75 l19 -21 58 58 58 57 0 -82 0 -83 28 3 c26 3
27 5 30 77 l3 74 55 -53 54 -54 22 22 22 22 -54 54 -53 55 74 3 c72 3 74 4 77
31 l3 27 -83 0 -82 0 57 58 58 58 -21 19 c-20 18 -21 18 -75 -35 l-55 -54 0
77 0 77 -30 0 -30 0 0 -82z"/>
</g>
</svg>
